<?xml version="1.0" encoding="UTF-8" standalone="no"?>
<svg xmlns="http://www.w3.org/2000/svg"
     xmlns:xlink="http://www.w3.org/1999/xlink"
     width="576pt" height="432pt" viewBox="0 0 576 432">
<title>gl2ps_renderer figure</title>
<desc>
Creator: GL2PS 1.4.0, (C) 1999-2017 C. Geuzaine
For: Octave
CreationDate: Sun Jun 17 15:00:50 2018
</desc>
<defs>
</defs>
<polygon fill="#ffffff" points="0,0 576,0 576,432 0,432"/>
<g>
<polygon fill="#ffffff" points="0,432 576,432 576,0 0,0" shape-rendering="crispEdges"/>
<clipPath id="cp00576432">
  <polygon points="0,432 576,432 576,0 0,0"/>
</clipPath>
<g clip-path="url(#cp00576432)">
<polygon fill="#ffffff" shape-rendering="crispEdges" points="74.88,384.48 521.28,384.48 74.88,32.4"/>
<polygon fill="#ffffff" shape-rendering="crispEdges" points="521.28,384.48 521.28,32.4 74.88,32.4"/>
<polyline fill="none" stroke="#262626" stroke-width="0.5" stroke-linecap="butt" stroke-linejoin="miter" stroke-opacity="0.15" stroke-dasharray="16,0" points="112.08,384.48 112.08,32.4"/>
<polyline fill="none" stroke="#262626" stroke-width="0.5" stroke-linecap="butt" stroke-linejoin="miter" stroke-opacity="0.15" stroke-dasharray="16,0" points="186.48,384.48 186.48,32.4"/>
<polyline fill="none" stroke="#262626" stroke-width="0.5" stroke-linecap="butt" stroke-linejoin="miter" stroke-opacity="0.15" stroke-dasharray="16,0" points="260.88,384.48 260.88,32.4"/>
<polyline fill="none" stroke="#262626" stroke-width="0.5" stroke-linecap="butt" stroke-linejoin="miter" stroke-opacity="0.15" stroke-dasharray="16,0" points="335.28,384.48 335.28,32.4"/>
<polyline fill="none" stroke="#262626" stroke-width="0.5" stroke-linecap="butt" stroke-linejoin="miter" stroke-opacity="0.15" stroke-dasharray="16,0" points="409.68,384.48 409.68,32.4"/>
<polyline fill="none" stroke="#262626" stroke-width="0.5" stroke-linecap="butt" stroke-linejoin="miter" stroke-opacity="0.15" stroke-dasharray="16,0" points="484.08,384.48 484.08,32.4"/>
<polyline fill="none" stroke="#262626" stroke-width="0.5" stroke-linecap="butt" stroke-linejoin="miter" points="112.08,384.48 112.08,380.015"/>
<polyline fill="none" stroke="#262626" stroke-width="0.5" stroke-linecap="butt" stroke-linejoin="miter" points="112.08,32.4 112.08,36.865"/>
<polyline fill="none" stroke="#262626" stroke-width="0.5" stroke-linecap="butt" stroke-linejoin="miter" points="186.48,384.48 186.48,380.015"/>
<polyline fill="none" stroke="#262626" stroke-width="0.5" stroke-linecap="butt" stroke-linejoin="miter" points="186.48,32.4 186.48,36.865"/>
<polyline fill="none" stroke="#262626" stroke-width="0.5" stroke-linecap="butt" stroke-linejoin="miter" points="260.88,384.48 260.88,380.015"/>
<polyline fill="none" stroke="#262626" stroke-width="0.5" stroke-linecap="butt" stroke-linejoin="miter" points="260.88,32.4 260.88,36.865"/>
<polyline fill="none" stroke="#262626" stroke-width="0.5" stroke-linecap="butt" stroke-linejoin="miter" points="335.28,384.48 335.28,380.015"/>
<polyline fill="none" stroke="#262626" stroke-width="0.5" stroke-linecap="butt" stroke-linejoin="miter" points="335.28,32.4 335.28,36.865"/>
<polyline fill="none" stroke="#262626" stroke-width="0.5" stroke-linecap="butt" stroke-linejoin="miter" points="409.68,384.48 409.68,380.015"/>
<polyline fill="none" stroke="#262626" stroke-width="0.5" stroke-linecap="butt" stroke-linejoin="miter" points="409.68,32.4 409.68,36.865"/>
<polyline fill="none" stroke="#262626" stroke-width="0.5" stroke-linecap="butt" stroke-linejoin="miter" points="484.08,384.48 484.08,380.015"/>
<polyline fill="none" stroke="#262626" stroke-width="0.5" stroke-linecap="butt" stroke-linejoin="miter" points="484.08,32.4 484.08,36.865"/>
<text xml:space="preserve" transform="translate(109.08,400.481) rotate(-0,3,-11)" font-family="FreeSans" font-weight="normal" font-style="normal" font-size="10"><tspan y="-1" fill="rgb(38,38,38)" x="0 ">0</tspan></text>
<text xml:space="preserve" transform="translate(183.48,400.481) rotate(-0,3,-11)" font-family="FreeSans" font-weight="normal" font-style="normal" font-size="10"><tspan y="-1" fill="rgb(38,38,38)" x="0 ">2</tspan></text>
<text xml:space="preserve" transform="translate(257.88,400.481) rotate(-0,3,-11)" font-family="FreeSans" font-weight="normal" font-style="normal" font-size="10"><tspan y="-1" fill="rgb(38,38,38)" x="0 ">4</tspan></text>
<text xml:space="preserve" transform="translate(332.28,400.481) rotate(-0,3,-11)" font-family="FreeSans" font-weight="normal" font-style="normal" font-size="10"><tspan y="-1" fill="rgb(38,38,38)" x="0 ">6</tspan></text>
<text xml:space="preserve" transform="translate(406.68,400.481) rotate(-0,3,-11)" font-family="FreeSans" font-weight="normal" font-style="normal" font-size="10"><tspan y="-1" fill="rgb(38,38,38)" x="0 ">8</tspan></text>
<text xml:space="preserve" transform="translate(478.08,400.481) rotate(-0,6,-11)" font-family="FreeSans" font-weight="normal" font-style="normal" font-size="10"><tspan y="-1" fill="rgb(38,38,38)" x="0 6 ">10</tspan></text>
<polyline fill="none" stroke="#262626" stroke-width="0.5" stroke-linecap="butt" stroke-linejoin="miter" stroke-opacity="0.15" stroke-dasharray="16,0" points="74.88,355.14 521.28,355.14"/>
<polyline fill="none" stroke="#262626" stroke-width="0.5" stroke-linecap="butt" stroke-linejoin="miter" stroke-opacity="0.15" stroke-dasharray="16,0" points="74.88,296.46 521.28,296.46"/>
<polyline fill="none" stroke="#262626" stroke-width="0.5" stroke-linecap="butt" stroke-linejoin="miter" stroke-opacity="0.15" stroke-dasharray="16,0" points="74.88,237.78 521.28,237.78"/>
<polyline fill="none" stroke="#262626" stroke-width="0.5" stroke-linecap="butt" stroke-linejoin="miter" stroke-opacity="0.15" stroke-dasharray="16,0" points="74.88,179.1 521.28,179.1"/>
<polyline fill="none" stroke="#262626" stroke-width="0.5" stroke-linecap="butt" stroke-linejoin="miter" stroke-opacity="0.15" stroke-dasharray="16,0" points="74.88,120.42 521.28,120.42"/>
<polyline fill="none" stroke="#262626" stroke-width="0.5" stroke-linecap="butt" stroke-linejoin="miter" stroke-opacity="0.15" stroke-dasharray="16,0" points="74.88,61.74 521.28,61.74"/>
<polyline fill="none" stroke="#262626" stroke-width="0.5" stroke-linecap="butt" stroke-linejoin="miter" points="74.88,355.14 79.348,355.14"/>
<polyline fill="none" stroke="#262626" stroke-width="0.5" stroke-linecap="butt" stroke-linejoin="miter" points="521.28,355.14 516.812,355.14"/>
<polyline fill="none" stroke="#262626" stroke-width="0.5" stroke-linecap="butt" stroke-linejoin="miter" points="74.88,296.46 79.348,296.46"/>
<polyline fill="none" stroke="#262626" stroke-width="0.5" stroke-linecap="butt" stroke-linejoin="miter" points="521.28,296.46 516.812,296.46"/>
<polyline fill="none" stroke="#262626" stroke-width="0.5" stroke-linecap="butt" stroke-linejoin="miter" points="74.88,237.78 79.348,237.78"/>
<polyline fill="none" stroke="#262626" stroke-width="0.5" stroke-linecap="butt" stroke-linejoin="miter" points="521.28,237.78 516.812,237.78"/>
<polyline fill="none" stroke="#262626" stroke-width="0.5" stroke-linecap="butt" stroke-linejoin="miter" points="74.88,179.1 79.348,179.1"/>
<polyline fill="none" stroke="#262626" stroke-width="0.5" stroke-linecap="butt" stroke-linejoin="miter" points="521.28,179.1 516.812,179.1"/>
<polyline fill="none" stroke="#262626" stroke-width="0.5" stroke-linecap="butt" stroke-linejoin="miter" points="74.88,120.42 79.348,120.42"/>
<polyline fill="none" stroke="#262626" stroke-width="0.5" stroke-linecap="butt" stroke-linejoin="miter" points="521.28,120.42 516.812,120.42"/>
<polyline fill="none" stroke="#262626" stroke-width="0.5" stroke-linecap="butt" stroke-linejoin="miter" points="74.88,61.74 79.348,61.74"/>
<polyline fill="none" stroke="#262626" stroke-width="0.5" stroke-linecap="butt" stroke-linejoin="miter" points="521.28,61.74 516.812,61.74"/>
<text xml:space="preserve" transform="translate(63.8755,360.64) rotate(-0,6,-5.5)" font-family="FreeSans" font-weight="normal" font-style="normal" font-size="10"><tspan y="-1" fill="rgb(38,38,38)" x="0 ">0</tspan></text>
<text xml:space="preserve" transform="translate(63.8755,301.96) rotate(-0,6,-5.5)" font-family="FreeSans" font-weight="normal" font-style="normal" font-size="10"><tspan y="-1" fill="rgb(38,38,38)" x="0 ">2</tspan></text>
<text xml:space="preserve" transform="translate(63.8755,243.28) rotate(-0,6,-5.5)" font-family="FreeSans" font-weight="normal" font-style="normal" font-size="10"><tspan y="-1" fill="rgb(38,38,38)" x="0 ">4</tspan></text>
<text xml:space="preserve" transform="translate(63.8755,184.6) rotate(-0,6,-5.5)" font-family="FreeSans" font-weight="normal" font-style="normal" font-size="10"><tspan y="-1" fill="rgb(38,38,38)" x="0 ">6</tspan></text>
<text xml:space="preserve" transform="translate(63.8755,125.92) rotate(-0,6,-5.5)" font-family="FreeSans" font-weight="normal" font-style="normal" font-size="10"><tspan y="-1" fill="rgb(38,38,38)" x="0 ">8</tspan></text>
<text xml:space="preserve" transform="translate(57.8755,67.24) rotate(-0,12,-5.5)" font-family="FreeSans" font-weight="normal" font-style="normal" font-size="10"><tspan y="-1" fill="rgb(38,38,38)" x="0 6 ">10</tspan></text>
<polyline fill="none" stroke="#262626" stroke-width="0.5" stroke-linecap="square" stroke-linejoin="miter" stroke-dasharray="16,0" points="74.88,384.48 521.28,384.48"/>
<polyline fill="none" stroke="#262626" stroke-width="0.5" stroke-linecap="square" stroke-linejoin="miter" stroke-dasharray="16,0" points="74.88,32.4 521.28,32.4"/>
<polyline fill="none" stroke="#262626" stroke-width="0.5" stroke-linecap="square" stroke-linejoin="miter" stroke-dasharray="16,0" points="74.88,384.48 74.88,32.4"/>
<polyline fill="none" stroke="#262626" stroke-width="0.5" stroke-linecap="square" stroke-linejoin="miter" stroke-dasharray="16,0" points="521.28,384.48 521.28,32.4"/>
<polyline fill="none" stroke="#0071bc" stroke-width="0.5" stroke-linecap="round" stroke-linejoin="round" points="457.92,203.55 457.347,205.314 455.847,206.403 453.993,206.403 452.493,205.314 451.92,203.55 452.493,201.787 453.993,200.697 455.847,200.697 457.347,201.787 457.92,203.55"/>
<polyline fill="none" stroke="#0071bc" stroke-width="0.5" stroke-linecap="round" stroke-linejoin="round" points="159.486,334.493 158.913,336.256 157.413,337.346 155.559,337.346 154.059,336.256 153.486,334.493 154.059,332.729 155.559,331.639 157.413,331.639 158.913,332.729 159.486,334.493"/>
<polyline fill="none" stroke="#0071bc" stroke-width="0.5" stroke-linecap="round" stroke-linejoin="round" points="377.214,276.078 376.641,277.841 375.141,278.931 373.287,278.931 371.787,277.841 371.214,276.078 371.787,274.314 373.287,273.225 375.141,273.225 376.641,274.314 377.214,276.078"/>
<polyline fill="none" stroke="#0071bc" stroke-width="0.5" stroke-linecap="round" stroke-linejoin="round" points="466.218,208.453 465.645,210.216 464.145,211.306 462.29,211.306 460.79,210.216 460.218,208.453 460.79,206.689 462.29,205.6 464.145,205.6 465.645,206.689 466.218,208.453"/>
<polyline fill="none" stroke="#0071bc" stroke-width="0.5" stroke-linecap="round" stroke-linejoin="round" points="411.086,295.216 410.513,296.979 409.013,298.069 407.159,298.069 405.659,296.979 405.086,295.216 405.659,293.452 407.159,292.362 409.013,292.362 410.513,293.452 411.086,295.216"/>
<polyline fill="none" stroke="#0071bc" stroke-width="0.5" stroke-linecap="round" stroke-linejoin="round" points="458.59,94.0498 458.017,95.8132 456.517,96.903 454.663,96.903 453.163,95.8132 452.59,94.0498 453.163,92.2865 454.663,91.1967 456.517,91.1967 458.017,92.2865 458.59,94.0498"/>
<polyline fill="none" stroke="#0071bc" stroke-width="0.5" stroke-linecap="round" stroke-linejoin="round" points="124.606,158.643 124.033,160.406 122.533,161.496 120.679,161.496 119.179,160.406 118.606,158.643 119.179,156.879 120.679,155.79 122.533,155.79 124.033,156.879 124.606,158.643"/>
<polyline fill="none" stroke="#0071bc" stroke-width="0.5" stroke-linecap="round" stroke-linejoin="round" points="180.011,190.409 179.438,192.173 177.938,193.262 176.084,193.262 174.584,192.173 174.011,190.409 174.584,188.646 176.084,187.556 177.938,187.556 179.438,188.646 180.011,190.409"/>
<polyline fill="none" stroke="#0071bc" stroke-width="0.5" stroke-linecap="round" stroke-linejoin="round" points="406.623,302.879 406.05,304.642 404.55,305.732 402.695,305.732 401.195,304.642 400.623,302.879 401.195,301.115 402.695,300.025 404.55,300.025 406.05,301.115 406.623,302.879"/>
<polyline fill="none" stroke="#0071bc" stroke-width="0.5" stroke-linecap="round" stroke-linejoin="round" points="364.102,122.329 363.529,124.092 362.029,125.182 360.175,125.182 358.675,124.092 358.102,122.329 358.675,120.565 360.175,119.475 362.029,119.475 363.529,120.565 364.102,122.329"/>
<polyline fill="none" stroke="#0071bc" stroke-width="0.5" stroke-linecap="round" stroke-linejoin="round" points="305.681,136.93 305.108,138.693 303.608,139.783 301.754,139.783 300.254,138.693 299.681,136.93 300.254,135.167 301.754,134.077 303.608,134.077 305.108,135.167 305.681,136.93"/>
<polyline fill="none" stroke="#0071bc" stroke-width="0.5" stroke-linecap="round" stroke-linejoin="round" points="370.91,344.105 370.337,345.868 368.837,346.958 366.983,346.958 365.483,345.868 364.91,344.105 365.483,342.341 366.983,341.252 368.837,341.252 370.337,342.341 370.91,344.105"/>
<polyline fill="none" stroke="#0071bc" stroke-width="0.5" stroke-linecap="round" stroke-linejoin="round" points="141.406,88.3096 140.833,90.073 139.333,91.1628 137.479,91.1628 135.979,90.073 135.406,88.3096 135.979,86.5463 137.479,85.4565 139.333,85.4565 140.833,86.5463 141.406,88.3096"/>
<polyline fill="none" stroke="#0071bc" stroke-width="0.5" stroke-linecap="round" stroke-linejoin="round" points="388.753,318.242 388.18,320.006 386.68,321.095 384.826,321.095 383.326,320.006 382.753,318.242 383.326,316.479 384.826,315.389 386.68,315.389 388.18,316.479 388.753,318.242"/>
<polyline fill="none" stroke="#0071bc" stroke-width="0.5" stroke-linecap="round" stroke-linejoin="round" points="150.664,311.624 150.091,313.387 148.591,314.477 146.737,314.477 145.237,313.387 144.664,311.624 145.237,309.86 146.737,308.77 148.591,308.77 150.091,309.86 150.664,311.624"/>
<polyline fill="none" stroke="#0071bc" stroke-width="0.5" stroke-linecap="round" stroke-linejoin="round" points="259.034,297.156 258.462,298.92 256.962,300.01 255.107,300.01 253.607,298.92 253.034,297.156 253.607,295.393 255.107,294.303 256.962,294.303 258.462,295.393 259.034,297.156"/>
<polyline fill="none" stroke="#0071bc" stroke-width="0.5" stroke-linecap="round" stroke-linejoin="round" points="241.581,271.769 241.008,273.533 239.508,274.623 237.654,274.623 236.154,273.533 235.581,271.769 236.154,270.006 237.654,268.916 239.508,268.916 241.008,270.006 241.581,271.769"/>
<polyline fill="none" stroke="#0071bc" stroke-width="0.5" stroke-linecap="round" stroke-linejoin="round" points="158.354,305.287 157.781,307.051 156.281,308.14 154.427,308.14 152.927,307.051 152.354,305.287 152.927,303.524 154.427,302.434 156.281,302.434 157.781,303.524 158.354,305.287"/>
<polyline fill="none" stroke="#0071bc" stroke-width="0.5" stroke-linecap="round" stroke-linejoin="round" points="232.698,143.001 232.125,144.764 230.625,145.854 228.771,145.854 227.271,144.764 226.698,143.001 227.271,141.237 228.771,140.148 230.625,140.148 232.125,141.237 232.698,143.001"/>
<polyline fill="none" stroke="#0071bc" stroke-width="0.5" stroke-linecap="round" stroke-linejoin="round" points="115.777,308.241 115.204,310.005 113.704,311.094 111.85,311.094 110.35,310.005 109.777,308.241 110.35,306.478 111.85,305.388 113.704,305.388 115.204,306.478 115.777,308.241"/>
<polyline fill="none" stroke="#0071bc" stroke-width="0.5" stroke-linecap="round" stroke-linejoin="round" points="215.751,114.569 215.179,116.333 213.679,117.423 211.824,117.423 210.324,116.333 209.751,114.569 210.324,112.806 211.824,111.716 213.679,111.716 215.179,112.806 215.751,114.569"/>
<polyline fill="none" stroke="#0071bc" stroke-width="0.5" stroke-linecap="round" stroke-linejoin="round" points="402.642,243.99 402.069,245.753 400.569,246.843 398.715,246.843 397.215,245.753 396.642,243.99 397.215,242.226 398.715,241.136 400.569,241.136 402.069,242.226 402.642,243.99"/>
<polyline fill="none" stroke="#0071bc" stroke-width="0.5" stroke-linecap="round" stroke-linejoin="round" points="115.581,339.657 115.008,341.42 113.508,342.51 111.654,342.51 110.154,341.42 109.581,339.657 110.154,337.893 111.654,336.804 113.508,336.804 115.008,337.893 115.581,339.657"/>
<polyline fill="none" stroke="#0071bc" stroke-width="0.5" stroke-linecap="round" stroke-linejoin="round" points="477.938,120.608 477.365,122.371 475.865,123.461 474.011,123.461 472.511,122.371 471.938,120.608 472.511,118.845 474.011,117.755 475.865,117.755 477.365,118.845 477.938,120.608"/>
<polyline fill="none" stroke="#0071bc" stroke-width="0.5" stroke-linecap="round" stroke-linejoin="round" points="155.781,141.134 155.208,142.898 153.708,143.988 151.854,143.988 150.354,142.898 149.781,141.134 150.354,139.371 151.854,138.281 153.708,138.281 155.208,139.371 155.781,141.134"/>
<polyline fill="none" stroke="#0071bc" stroke-width="0.5" stroke-linecap="round" stroke-linejoin="round" points="151.515,229.701 150.942,231.465 149.442,232.555 147.588,232.555 146.088,231.465 145.515,229.701 146.088,227.938 147.588,226.848 149.442,226.848 150.942,227.938 151.515,229.701"/>
<polyline fill="none" stroke="#0071bc" stroke-width="0.5" stroke-linecap="round" stroke-linejoin="round" points="395.172,142.781 394.599,144.545 393.099,145.634 391.245,145.634 389.745,144.545 389.172,142.781 389.745,141.018 391.245,139.928 393.099,139.928 394.599,141.018 395.172,142.781"/>
<polyline fill="none" stroke="#0071bc" stroke-width="0.5" stroke-linecap="round" stroke-linejoin="round" points="223.412,156.778 222.839,158.542 221.339,159.632 219.485,159.632 217.985,158.542 217.412,156.778 217.985,155.015 219.485,153.925 221.339,153.925 222.839,155.015 223.412,156.778"/>
<polyline fill="none" stroke="#0071bc" stroke-width="0.5" stroke-linecap="round" stroke-linejoin="round" points="456.231,295.889 455.658,297.653 454.158,298.742 452.304,298.742 450.804,297.653 450.231,295.889 450.804,294.126 452.304,293.036 454.158,293.036 455.658,294.126 456.231,295.889"/>
<polyline fill="none" stroke="#0071bc" stroke-width="0.5" stroke-linecap="round" stroke-linejoin="round" points="430.703,277.826 430.13,279.589 428.63,280.679 426.776,280.679 425.276,279.589 424.703,277.826 425.276,276.063 426.776,274.973 428.63,274.973 430.13,276.063 430.703,277.826"/>
<polyline fill="none" stroke="#0071bc" stroke-width="0.5" stroke-linecap="round" stroke-linejoin="round" points="247.021,286.333 246.448,288.096 244.948,289.186 243.094,289.186 241.594,288.096 241.021,286.333 241.594,284.57 243.094,283.48 244.948,283.48 246.448,284.57 247.021,286.333"/>
<polyline fill="none" stroke="#0071bc" stroke-width="0.5" stroke-linecap="round" stroke-linejoin="round" points="129.81,185.597 129.237,187.36 127.737,188.45 125.883,188.45 124.383,187.36 123.81,185.597 124.383,183.833 125.883,182.744 127.737,182.744 129.237,183.833 129.81,185.597"/>
<polyline fill="none" stroke="#0071bc" stroke-width="0.5" stroke-linecap="round" stroke-linejoin="round" points="244.725,195.714 244.152,197.478 242.652,198.567 240.798,198.567 239.298,197.478 238.725,195.714 239.298,193.951 240.798,192.861 242.652,192.861 244.152,193.951 244.725,195.714"/>
<polyline fill="none" stroke="#0071bc" stroke-width="0.5" stroke-linecap="round" stroke-linejoin="round" points="237.352,207.593 236.779,209.356 235.279,210.446 233.425,210.446 231.925,209.356 231.352,207.593 231.925,205.829 233.425,204.739 235.279,204.739 236.779,205.829 237.352,207.593"/>
<polyline fill="none" stroke="#0071bc" stroke-width="0.5" stroke-linecap="round" stroke-linejoin="round" points="370.615,234.568 370.042,236.331 368.542,237.421 366.688,237.421 365.188,236.331 364.615,234.568 365.188,232.805 366.688,231.715 368.542,231.715 370.042,232.805 370.615,234.568"/>
<polyline fill="none" stroke="#0071bc" stroke-width="0.5" stroke-linecap="round" stroke-linejoin="round" points="219.993,88.3362 219.42,90.0995 217.92,91.1893 216.066,91.1893 214.566,90.0995 213.993,88.3362 214.566,86.5728 216.066,85.483 217.92,85.483 219.42,86.5728 219.993,88.3362"/>
<polyline fill="none" stroke="#0071bc" stroke-width="0.5" stroke-linecap="round" stroke-linejoin="round" points="409.665,162.37 409.092,164.133 407.592,165.223 405.738,165.223 404.238,164.133 403.665,162.37 404.238,160.607 405.738,159.517 407.592,159.517 409.092,160.607 409.665,162.37"/>
<polyline fill="none" stroke="#0071bc" stroke-width="0.5" stroke-linecap="round" stroke-linejoin="round" points="265.836,157.564 265.263,159.327 263.763,160.417 261.909,160.417 260.409,159.327 259.836,157.564 260.409,155.801 261.909,154.711 263.763,154.711 265.263,155.801 265.836,157.564"/>
<polyline fill="none" stroke="#0071bc" stroke-width="0.5" stroke-linecap="round" stroke-linejoin="round" points="451.363,231.575 450.79,233.338 449.29,234.428 447.435,234.428 445.935,233.338 445.363,231.575 445.935,229.811 447.435,228.722 449.29,228.722 450.79,229.811 451.363,231.575"/>
<polyline fill="none" stroke="#0071bc" stroke-width="0.5" stroke-linecap="round" stroke-linejoin="round" points="285.937,82.1465 285.364,83.9099 283.864,84.9997 282.009,84.9997 280.509,83.9099 279.937,82.1465 280.509,80.3832 282.009,79.2934 283.864,79.2934 285.364,80.3832 285.937,82.1465"/>
<polyline fill="none" stroke="#0071bc" stroke-width="0.5" stroke-linecap="round" stroke-linejoin="round" points="332.847,184.904 332.274,186.667 330.774,187.757 328.92,187.757 327.42,186.667 326.847,184.904 327.42,183.14 328.92,182.051 330.774,182.051 332.274,183.14 332.847,184.904"/>
<polyline fill="none" stroke="#0071bc" stroke-width="0.5" stroke-linecap="round" stroke-linejoin="round" points="165.149,256.41 164.576,258.174 163.076,259.263 161.222,259.263 159.722,258.174 159.149,256.41 159.722,254.647 161.222,253.557 163.076,253.557 164.576,254.647 165.149,256.41"/>
<polyline fill="none" stroke="#0071bc" stroke-width="0.5" stroke-linecap="round" stroke-linejoin="round" points="425.665,159.008 425.092,160.771 423.592,161.861 421.738,161.861 420.238,160.771 419.665,159.008 420.238,157.244 421.738,156.155 423.592,156.155 425.092,157.244 425.665,159.008"/>
<polyline fill="none" stroke="#0071bc" stroke-width="0.5" stroke-linecap="round" stroke-linejoin="round" points="293.937,146.575 293.364,148.339 291.864,149.428 290.01,149.428 288.51,148.339 287.937,146.575 288.51,144.812 290.01,143.722 291.864,143.722 293.364,144.812 293.937,146.575"/>
<polyline fill="none" stroke="#0071bc" stroke-width="0.5" stroke-linecap="round" stroke-linejoin="round" points="394.301,123.431 393.728,125.194 392.228,126.284 390.374,126.284 388.874,125.194 388.301,123.431 388.874,121.668 390.374,120.578 392.228,120.578 393.728,121.668 394.301,123.431"/>
<polyline fill="none" stroke="#0071bc" stroke-width="0.5" stroke-linecap="round" stroke-linejoin="round" points="139.935,341.634 139.362,343.397 137.862,344.487 136.008,344.487 134.508,343.397 133.935,341.634 134.508,339.871 136.008,338.781 137.862,338.781 139.362,339.871 139.935,341.634"/>
<polyline fill="none" stroke="#0071bc" stroke-width="0.5" stroke-linecap="round" stroke-linejoin="round" points="319.629,155.281 319.056,157.044 317.556,158.134 315.702,158.134 314.202,157.044 313.629,155.281 314.202,153.517 315.702,152.427 317.556,152.427 319.056,153.517 319.629,155.281"/>
<polyline fill="none" stroke="#0071bc" stroke-width="0.5" stroke-linecap="round" stroke-linejoin="round" points="417.462,257.964 416.889,259.727 415.389,260.817 413.535,260.817 412.035,259.727 411.462,257.964 412.035,256.201 413.535,255.111 415.389,255.111 416.889,256.201 417.462,257.964"/>
<polyline fill="none" stroke="#0071bc" stroke-width="0.5" stroke-linecap="round" stroke-linejoin="round" points="454.378,313.807 453.805,315.57 452.305,316.66 450.451,316.66 448.951,315.57 448.378,313.807 448.951,312.043 450.451,310.954 452.305,310.954 453.805,312.043 454.378,313.807"/>
<polyline fill="none" stroke="#0071bc" stroke-width="0.5" stroke-linecap="round" stroke-linejoin="round" points="431.901,296.654 431.328,298.417 429.828,299.507 427.974,299.507 426.474,298.417 425.901,296.654 426.474,294.89 427.974,293.8 429.828,293.8 431.328,294.89 431.901,296.654"/>
<polyline fill="none" stroke="#0071bc" stroke-width="0.5" stroke-linecap="round" stroke-linejoin="round" points="208.739,102.399 208.166,104.162 206.666,105.252 204.812,105.252 203.312,104.162 202.739,102.399 203.312,100.636 204.812,99.5458 206.666,99.5458 208.166,100.636 208.739,102.399"/>
<polyline fill="none" stroke="#0071bc" stroke-width="0.5" stroke-linecap="round" stroke-linejoin="round" points="404.769,68.2521 404.196,70.0154 402.696,71.1053 400.842,71.1053 399.342,70.0154 398.769,68.2521 399.342,66.4887 400.842,65.3989 402.696,65.3989 404.196,66.4887 404.769,68.2521"/>
<polyline fill="none" stroke="#0071bc" stroke-width="0.5" stroke-linecap="round" stroke-linejoin="round" points="201.732,257.039 201.159,258.802 199.659,259.892 197.805,259.892 196.305,258.802 195.732,257.039 196.305,255.275 197.805,254.185 199.659,254.185 201.159,255.275 201.732,257.039"/>
<polyline fill="none" stroke="#0071bc" stroke-width="0.5" stroke-linecap="round" stroke-linejoin="round" points="388.353,104.778 387.781,106.541 386.281,107.631 384.426,107.631 382.926,106.541 382.353,104.778 382.926,103.014 384.426,101.924 386.281,101.924 387.781,103.014 388.353,104.778"/>
<polyline fill="none" stroke="#0071bc" stroke-width="0.5" stroke-linecap="round" stroke-linejoin="round" points="293.413,74.4501 292.84,76.2135 291.34,77.3033 289.486,77.3033 287.986,76.2135 287.413,74.4501 287.986,72.6868 289.486,71.597 291.34,71.597 292.84,72.6868 293.413,74.4501"/>
<polyline fill="none" stroke="#0071bc" stroke-width="0.5" stroke-linecap="round" stroke-linejoin="round" points="486.024,175.224 485.451,176.987 483.951,178.077 482.097,178.077 480.597,176.987 480.024,175.224 480.597,173.46 482.097,172.37 483.951,172.37 485.451,173.46 486.024,175.224"/>
<polyline fill="none" stroke="#0071bc" stroke-width="0.5" stroke-linecap="round" stroke-linejoin="round" points="235.789,177.487 235.216,179.25 233.716,180.34 231.862,180.34 230.362,179.25 229.789,177.487 230.362,175.723 231.862,174.634 233.716,174.634 235.216,175.723 235.789,177.487"/>
<polyline fill="none" stroke="#0071bc" stroke-width="0.5" stroke-linecap="round" stroke-linejoin="round" points="460.539,193.346 459.966,195.109 458.466,196.199 456.612,196.199 455.112,195.109 454.539,193.346 455.112,191.583 456.612,190.493 458.466,190.493 459.966,191.583 460.539,193.346"/>
<polyline fill="none" stroke="#0071bc" stroke-width="0.5" stroke-linecap="round" stroke-linejoin="round" points="290.778,189.271 290.205,191.034 288.705,192.124 286.851,192.124 285.351,191.034 284.778,189.271 285.351,187.507 286.851,186.418 288.705,186.418 290.205,187.507 290.778,189.271"/>
<polyline fill="none" stroke="#0071bc" stroke-width="0.5" stroke-linecap="round" stroke-linejoin="round" points="187.823,322.918 187.25,324.681 185.75,325.771 183.896,325.771 182.396,324.681 181.823,322.918 182.396,321.154 183.896,320.064 185.75,320.064 187.25,321.154 187.823,322.918"/>
<polyline fill="none" stroke="#0071bc" stroke-width="0.5" stroke-linecap="round" stroke-linejoin="round" points="316.937,152.067 316.364,153.831 314.864,154.92 313.01,154.92 311.51,153.831 310.937,152.067 311.51,150.304 313.01,149.214 314.864,149.214 316.364,150.304 316.937,152.067"/>
<polyline fill="none" stroke="#0071bc" stroke-width="0.5" stroke-linecap="round" stroke-linejoin="round" points="414.783,241.038 414.21,242.802 412.71,243.892 410.856,243.892 409.356,242.802 408.783,241.038 409.356,239.275 410.856,238.185 412.71,238.185 414.21,239.275 414.783,241.038"/>
<polyline fill="none" stroke="#0071bc" stroke-width="0.5" stroke-linecap="round" stroke-linejoin="round" points="178.458,329.781 177.885,331.545 176.385,332.634 174.531,332.634 173.031,331.545 172.458,329.781 173.031,328.018 174.531,326.928 176.385,326.928 177.885,328.018 178.458,329.781"/>
<polyline fill="none" stroke="#0071bc" stroke-width="0.5" stroke-linecap="round" stroke-linejoin="round" points="305.13,341.132 304.557,342.895 303.057,343.985 301.203,343.985 299.703,342.895 299.13,341.132 299.703,339.369 301.203,338.279 303.057,338.279 304.557,339.369 305.13,341.132"/>
<polyline fill="none" stroke="#0071bc" stroke-width="0.5" stroke-linecap="round" stroke-linejoin="round" points="244.317,130.62 243.744,132.384 242.244,133.474 240.39,133.474 238.89,132.384 238.317,130.62 238.89,128.857 240.39,127.767 242.244,127.767 243.744,128.857 244.317,130.62"/>
<polyline fill="none" stroke="#0071bc" stroke-width="0.5" stroke-linecap="round" stroke-linejoin="round" points="253.281,155.109 252.708,156.872 251.208,157.962 249.354,157.962 247.854,156.872 247.281,155.109 247.854,153.345 249.354,152.256 251.208,152.256 252.708,153.345 253.281,155.109"/>
<polyline fill="none" stroke="#0071bc" stroke-width="0.5" stroke-linecap="round" stroke-linejoin="round" points="307.6,284.222 307.027,285.985 305.527,287.075 303.673,287.075 302.173,285.985 301.6,284.222 302.173,282.459 303.673,281.369 305.527,281.369 307.027,282.459 307.6,284.222"/>
<polyline fill="none" stroke="#0071bc" stroke-width="0.5" stroke-linecap="round" stroke-linejoin="round" points="326.39,256.816 325.817,258.579 324.317,259.669 322.463,259.669 320.963,258.579 320.39,256.816 320.963,255.052 322.463,253.962 324.317,253.962 325.817,255.052 326.39,256.816"/>
<polyline fill="none" stroke="#0071bc" stroke-width="0.5" stroke-linecap="round" stroke-linejoin="round" points="345.054,122.501 344.481,124.264 342.981,125.354 341.127,125.354 339.627,124.264 339.054,122.501 339.627,120.738 341.127,119.648 342.981,119.648 344.481,120.738 345.054,122.501"/>
<polyline fill="none" stroke="#0071bc" stroke-width="0.5" stroke-linecap="round" stroke-linejoin="round" points="239.525,318.345 238.952,320.108 237.452,321.198 235.598,321.198 234.098,320.108 233.525,318.345 234.098,316.581 235.598,315.492 237.452,315.492 238.952,316.581 239.525,318.345"/>
<polyline fill="none" stroke="#0071bc" stroke-width="0.5" stroke-linecap="round" stroke-linejoin="round" points="151.885,337.389 151.312,339.153 149.812,340.242 147.958,340.242 146.458,339.153 145.885,337.389 146.458,335.626 147.958,334.536 149.812,334.536 151.312,335.626 151.885,337.389"/>
<polyline fill="none" stroke="#0071bc" stroke-width="0.5" stroke-linecap="round" stroke-linejoin="round" points="418.1,110.311 417.527,112.074 416.027,113.164 414.173,113.164 412.673,112.074 412.1,110.311 412.673,108.547 414.173,107.458 416.027,107.458 417.527,108.547 418.1,110.311"/>
<polyline fill="none" stroke="#0071bc" stroke-width="0.5" stroke-linecap="round" stroke-linejoin="round" points="382.65,228.249 382.077,230.012 380.577,231.102 378.723,231.102 377.223,230.012 376.65,228.249 377.223,226.485 378.723,225.395 380.577,225.395 382.077,226.485 382.65,228.249"/>
<polyline fill="none" stroke="#0071bc" stroke-width="0.5" stroke-linecap="round" stroke-linejoin="round" points="255.252,197.616 254.679,199.379 253.179,200.469 251.325,200.469 249.825,199.379 249.252,197.616 249.825,195.852 251.325,194.763 253.179,194.763 254.679,195.852 255.252,197.616"/>
<polyline fill="none" stroke="#0071bc" stroke-width="0.5" stroke-linecap="round" stroke-linejoin="round" points="242.985,132.185 242.412,133.948 240.912,135.038 239.058,135.038 237.558,133.948 236.985,132.185 237.558,130.422 239.058,129.332 240.912,129.332 242.412,130.422 242.985,132.185"/>
<polyline fill="none" stroke="#0071bc" stroke-width="0.5" stroke-linecap="round" stroke-linejoin="round" points="206.231,124.789 205.658,126.552 204.158,127.642 202.304,127.642 200.804,126.552 200.231,124.789 200.804,123.025 202.304,121.935 204.158,121.935 205.658,123.025 206.231,124.789"/>
<polyline fill="none" stroke="#0071bc" stroke-width="0.5" stroke-linecap="round" stroke-linejoin="round" points="479.385,289.639 478.812,291.403 477.312,292.492 475.458,292.492 473.958,291.403 473.385,289.639 473.958,287.876 475.458,286.786 477.312,286.786 478.812,287.876 479.385,289.639"/>
<polyline fill="none" stroke="#0071bc" stroke-width="0.5" stroke-linecap="round" stroke-linejoin="round" points="399.938,120.877 399.365,122.64 397.865,123.73 396.011,123.73 394.511,122.64 393.938,120.877 394.511,119.113 396.011,118.024 397.865,118.024 399.365,119.113 399.938,120.877"/>
<polyline fill="none" stroke="#0071bc" stroke-width="0.5" stroke-linecap="round" stroke-linejoin="round" points="220.479,307.061 219.906,308.824 218.406,309.914 216.552,309.914 215.052,308.824 214.479,307.061 215.052,305.297 216.552,304.208 218.406,304.208 219.906,305.297 220.479,307.061"/>
<polyline fill="none" stroke="#0071bc" stroke-width="0.5" stroke-linecap="round" stroke-linejoin="round" points="409.8,121.258 409.227,123.021 407.727,124.111 405.873,124.111 404.373,123.021 403.8,121.258 404.373,119.494 405.873,118.404 407.727,118.404 409.227,119.494 409.8,121.258"/>
<polyline fill="none" stroke="#0071bc" stroke-width="0.5" stroke-linecap="round" stroke-linejoin="round" points="449.537,170.085 448.964,171.849 447.464,172.938 445.61,172.938 444.11,171.849 443.537,170.085 444.11,168.322 445.61,167.232 447.464,167.232 448.964,168.322 449.537,170.085"/>
<polyline fill="none" stroke="#0071bc" stroke-width="0.5" stroke-linecap="round" stroke-linejoin="round" points="464.759,239.07 464.187,240.833 462.687,241.923 460.832,241.923 459.332,240.833 458.759,239.07 459.332,237.306 460.832,236.216 462.687,236.216 464.187,237.306 464.759,239.07"/>
<polyline fill="none" stroke="#0071bc" stroke-width="0.5" stroke-linecap="round" stroke-linejoin="round" points="202.554,71.8396 201.981,73.603 200.481,74.6928 198.627,74.6928 197.127,73.603 196.554,71.8396 197.127,70.0763 198.627,68.9865 200.481,68.9865 201.981,70.0763 202.554,71.8396"/>
<polyline fill="none" stroke="#0071bc" stroke-width="0.5" stroke-linecap="round" stroke-linejoin="round" points="176.411,221.721 175.838,223.484 174.338,224.574 172.484,224.574 170.984,223.484 170.411,221.721 170.984,219.957 172.484,218.867 174.338,218.867 175.838,219.957 176.411,221.721"/>
<polyline fill="none" stroke="#0071bc" stroke-width="0.5" stroke-linecap="round" stroke-linejoin="round" points="384.519,236.341 383.946,238.104 382.446,239.194 380.592,239.194 379.092,238.104 378.519,236.341 379.092,234.577 380.592,233.488 382.446,233.488 383.946,234.577 384.519,236.341"/>
<polyline fill="none" stroke="#0071bc" stroke-width="0.5" stroke-linecap="round" stroke-linejoin="round" points="457.111,216.622 456.538,218.385 455.038,219.475 453.184,219.475 451.684,218.385 451.111,216.622 451.684,214.859 453.184,213.769 455.038,213.769 456.538,214.859 457.111,216.622"/>
<polyline fill="none" stroke="#0071bc" stroke-width="0.5" stroke-linecap="round" stroke-linejoin="round" points="484.576,80.9478 484.003,82.7112 482.503,83.801 480.648,83.801 479.148,82.7112 478.576,80.9478 479.148,79.1844 480.648,78.0946 482.503,78.0946 484.003,79.1844 484.576,80.9478"/>
<polyline fill="none" stroke="#0071bc" stroke-width="0.5" stroke-linecap="round" stroke-linejoin="round" points="415.043,228.111 414.47,229.874 412.97,230.964 411.116,230.964 409.616,229.874 409.043,228.111 409.616,226.347 411.116,225.257 412.97,225.257 414.47,226.347 415.043,228.111"/>
<polyline fill="none" stroke="#0071bc" stroke-width="0.5" stroke-linecap="round" stroke-linejoin="round" points="275.192,121.993 274.619,123.756 273.119,124.846 271.265,124.846 269.765,123.756 269.192,121.993 269.765,120.23 271.265,119.14 273.119,119.14 274.619,120.23 275.192,121.993"/>
<polyline fill="none" stroke="#0071bc" stroke-width="0.5" stroke-linecap="round" stroke-linejoin="round" points="277.781,182.986 277.208,184.75 275.708,185.84 273.854,185.84 272.354,184.75 271.781,182.986 272.354,181.223 273.854,180.133 275.708,180.133 277.208,181.223 277.781,182.986"/>
<polyline fill="none" stroke="#0071bc" stroke-width="0.5" stroke-linecap="round" stroke-linejoin="round" points="436.306,97.7393 435.733,99.5027 434.234,100.592 432.379,100.592 430.879,99.5027 430.306,97.7393 430.879,95.976 432.379,94.8862 434.234,94.8862 435.733,95.976 436.306,97.7393"/>
<polyline fill="none" stroke="#0071bc" stroke-width="0.5" stroke-linecap="round" stroke-linejoin="round" points="349.886,178.639 349.313,180.402 347.813,181.492 345.959,181.492 344.459,180.402 343.886,178.639 344.459,176.875 345.959,175.786 347.813,175.786 349.313,176.875 349.886,178.639"/>
<polyline fill="none" stroke="#0071bc" stroke-width="0.5" stroke-linecap="round" stroke-linejoin="round" points="319.102,183.141 318.529,184.904 317.029,185.994 315.174,185.994 313.674,184.904 313.102,183.141 313.674,181.377 315.174,180.287 317.029,180.287 318.529,181.377 319.102,183.141"/>
<polyline fill="none" stroke="#0071bc" stroke-width="0.5" stroke-linecap="round" stroke-linejoin="round" points="416.821,309.116 416.248,310.879 414.748,311.969 412.894,311.969 411.394,310.879 410.821,309.116 411.394,307.353 412.894,306.263 414.748,306.263 416.248,307.353 416.821,309.116"/>
<polyline fill="none" stroke="#0071bc" stroke-width="0.5" stroke-linecap="round" stroke-linejoin="round" points="295.774,290.927 295.201,292.691 293.701,293.781 291.847,293.781 290.347,292.691 289.774,290.927 290.347,289.164 291.847,288.074 293.701,288.074 295.201,289.164 295.774,290.927"/>
<polyline fill="none" stroke="#0071bc" stroke-width="0.5" stroke-linecap="round" stroke-linejoin="round" points="212.54,194.672 211.967,196.436 210.467,197.525 208.613,197.525 207.113,196.436 206.54,194.672 207.113,192.909 208.613,191.819 210.467,191.819 211.967,192.909 212.54,194.672"/>
<polyline fill="none" stroke="#0071bc" stroke-width="0.5" stroke-linecap="round" stroke-linejoin="round" points="375.598,232.164 375.025,233.927 373.525,235.017 371.671,235.017 370.171,233.927 369.598,232.164 370.171,230.4 371.671,229.311 373.525,229.311 375.025,230.4 375.598,232.164"/>
<polyline fill="none" stroke="#0071bc" stroke-width="0.5" stroke-linecap="round" stroke-linejoin="round" points="143.232,208.95 142.659,210.714 141.159,211.803 139.305,211.803 137.805,210.714 137.232,208.95 137.805,207.187 139.305,206.097 141.159,206.097 142.659,207.187 143.232,208.95"/>
<polyline fill="none" stroke="#0071bc" stroke-width="0.5" stroke-linecap="round" stroke-linejoin="round" points="284.182,201.786 283.609,203.55 282.109,204.639 280.255,204.639 278.755,203.55 278.182,201.786 278.755,200.023 280.255,198.933 282.109,198.933 283.609,200.023 284.182,201.786"/>
<polyline fill="none" stroke="#0071bc" stroke-width="0.5" stroke-linecap="round" stroke-linejoin="round" points="355.162,249.244 354.589,251.008 353.089,252.097 351.235,252.097 349.735,251.008 349.162,249.244 349.735,247.481 351.235,246.391 353.089,246.391 354.589,247.481 355.162,249.244"/>
<polyline fill="none" stroke="#d85218" stroke-width="0.5" stroke-linecap="butt" stroke-linejoin="round" points="74.88,175.224 521.28,175.224"/>
<polyline fill="none" stroke="#ecb01f" stroke-width="0.5" stroke-linecap="butt" stroke-linejoin="round" points="401.769,384.48 401.769,32.4"/>
</g>
</g>
</svg>
